<svg width="224" height="58" viewBox="0 0 224 58" fill="none" xmlns="http://www.w3.org/2000/svg">
  <rect width="32" height="32" rx="16" fill="#F7931A"/>
  <g clip-path="url(#clip0_27_947)">
    <path d="M27.6396 18.9029C26.0369 25.3315 19.5258 29.2438 13.0964 27.6407C6.66967 26.038 2.75733 19.5265 4.36073 13.0984C5.96271 6.66903 12.4739 2.75639 18.9013 4.35908C25.3302 5.96177 29.2423 12.474 27.6394 18.903L27.6396 18.9029H27.6396Z" fill="#F7931A"/>
    <path d="M21.2915 14.2903C21.5303 12.6934 20.3145 11.835 18.652 11.2623L19.1913 9.09911L17.8745 8.771L17.3495 10.8772C17.0033 10.7909 16.6478 10.7095 16.2945 10.6289L16.8233 8.50875L15.5073 8.18063L14.9677 10.3431C14.6812 10.2779 14.3999 10.2134 14.1269 10.1455L14.1284 10.1387L12.3125 9.68525L11.9622 11.0917C11.9622 11.0917 12.9392 11.3156 12.9186 11.3294C13.4518 11.4625 13.5483 11.8155 13.5322 12.0953L12.9179 14.5596C12.9546 14.569 13.0022 14.5825 13.0548 14.6036C13.0109 14.5927 12.9641 14.5808 12.9156 14.5691L12.0545 18.0214C11.9893 18.1834 11.8239 18.4265 11.4511 18.3342C11.4643 18.3533 10.494 18.0954 10.494 18.0954L9.84027 19.6027L11.5539 20.0299C11.8727 20.1098 12.1851 20.1934 12.4927 20.2721L11.9478 22.4601L13.2631 22.7882L13.8027 20.6234C14.162 20.721 14.5107 20.811 14.8521 20.8958L14.3143 23.0504L15.6312 23.3785L16.176 21.1946C18.4214 21.6195 20.1098 21.4482 20.8205 19.4172C21.3931 17.782 20.792 16.8389 19.6107 16.2238C20.4711 16.0254 21.1191 15.4595 21.2919 14.2905L21.2915 14.2902L21.2915 14.2903ZM18.2829 18.5091C17.8759 20.1443 15.1228 19.2604 14.2302 19.0387L14.9533 16.14C15.8458 16.3628 18.7082 16.8038 18.2829 18.5091H18.2829ZM18.6901 14.2666C18.3189 15.754 16.0274 14.9983 15.2841 14.813L15.9397 12.1841C16.683 12.3694 19.0768 12.7152 18.6902 14.2666H18.6901Z" fill="white"/>
  </g>
  <path d="M45.1477 22V10.3636H49.6023C50.4432 10.3636 51.142 10.4962 51.6989 10.7614C52.2595 11.0227 52.678 11.3807 52.9545 11.8352C53.2348 12.2898 53.375 12.8049 53.375 13.3807C53.375 13.8542 53.2841 14.2595 53.1023 14.5966C52.9205 14.9299 52.6761 15.2008 52.3693 15.4091C52.0625 15.6174 51.7197 15.767 51.3409 15.858V15.9716C51.7538 15.9943 52.1496 16.1212 52.5284 16.3523C52.911 16.5795 53.2235 16.9015 53.4659 17.3182C53.7083 17.7348 53.8295 18.2386 53.8295 18.8295C53.8295 19.4318 53.6837 19.9735 53.392 20.4545C53.1004 20.9318 52.661 21.3087 52.0739 21.5852C51.4867 21.8617 50.7481 22 49.858 22H45.1477ZM47.2557 20.2386H49.5227C50.2879 20.2386 50.839 20.0928 51.1761 19.8011C51.517 19.5057 51.6875 19.1269 51.6875 18.6648C51.6875 18.3201 51.6023 18.0095 51.4318 17.733C51.2614 17.4527 51.0189 17.233 50.7045 17.0739C50.3902 16.911 50.0152 16.8295 49.5795 16.8295H47.2557V20.2386ZM47.2557 15.3125H49.3409C49.7045 15.3125 50.0322 15.2462 50.3239 15.1136C50.6155 14.9773 50.8447 14.786 51.0114 14.5398C51.1818 14.2898 51.267 13.9943 51.267 13.6534C51.267 13.2027 51.108 12.8314 50.7898 12.5398C50.4754 12.2481 50.0076 12.1023 49.3864 12.1023H47.2557V15.3125ZM55.5724 22V13.2727H57.6293V22H55.5724ZM56.6065 12.0341C56.2808 12.0341 56.0005 11.9261 55.7656 11.7102C55.5308 11.4905 55.4134 11.2273 55.4134 10.9205C55.4134 10.6098 55.5308 10.3466 55.7656 10.1307C56.0005 9.91098 56.2808 9.80114 56.6065 9.80114C56.9361 9.80114 57.2164 9.91098 57.4474 10.1307C57.6823 10.3466 57.7997 10.6098 57.7997 10.9205C57.7997 11.2273 57.6823 11.4905 57.4474 11.7102C57.2164 11.9261 56.9361 12.0341 56.6065 12.0341ZM64.1023 13.2727V14.8636H59.0852V13.2727H64.1023ZM60.3239 11.1818H62.3807V19.375C62.3807 19.6515 62.4223 19.8636 62.5057 20.0114C62.5928 20.1553 62.7064 20.2538 62.8466 20.3068C62.9867 20.3598 63.142 20.3864 63.3125 20.3864C63.4413 20.3864 63.5587 20.3769 63.6648 20.358C63.7746 20.339 63.858 20.322 63.9148 20.3068L64.2614 21.9148C64.1515 21.9527 63.9943 21.9943 63.7898 22.0398C63.589 22.0852 63.3428 22.1117 63.0511 22.1193C62.536 22.1345 62.072 22.0568 61.6591 21.8864C61.2462 21.7121 60.9186 21.4432 60.6761 21.0795C60.4375 20.7159 60.3201 20.2614 60.3239 19.7159V11.1818ZM69.5355 22.1705C68.6643 22.1705 67.9162 21.9792 67.2912 21.5966C66.67 21.214 66.1908 20.6856 65.8537 20.0114C65.5204 19.3333 65.3537 18.553 65.3537 17.6705C65.3537 16.7841 65.5241 16.0019 65.8651 15.3239C66.206 14.642 66.687 14.1117 67.3082 13.733C67.9332 13.3504 68.6719 13.1591 69.5241 13.1591C70.2325 13.1591 70.8594 13.2898 71.4048 13.5511C71.9541 13.8087 72.3916 14.1742 72.7173 14.6477C73.0431 15.1174 73.2287 15.6667 73.2741 16.2955H71.3082C71.2287 15.875 71.0393 15.5246 70.7401 15.2443C70.4446 14.9602 70.0488 14.8182 69.5526 14.8182C69.1321 14.8182 68.7628 14.9318 68.4446 15.1591C68.1264 15.3826 67.8783 15.7045 67.7003 16.125C67.526 16.5455 67.4389 17.0492 67.4389 17.6364C67.4389 18.2311 67.526 18.7424 67.7003 19.1705C67.8745 19.5947 68.1188 19.9223 68.4332 20.1534C68.7514 20.3807 69.1245 20.4943 69.5526 20.4943C69.8556 20.4943 70.1264 20.4375 70.3651 20.3239C70.6075 20.2064 70.8101 20.0379 70.973 19.8182C71.1359 19.5985 71.2476 19.3314 71.3082 19.017H73.2741C73.2249 19.6345 73.0431 20.1818 72.7287 20.6591C72.4143 21.1326 71.9863 21.5038 71.4446 21.7727C70.9029 22.0379 70.2666 22.1705 69.5355 22.1705ZM78.7699 22.1705C77.9176 22.1705 77.179 21.983 76.554 21.608C75.929 21.233 75.4441 20.7083 75.0994 20.0341C74.7585 19.3598 74.5881 18.572 74.5881 17.6705C74.5881 16.7689 74.7585 15.9792 75.0994 15.3011C75.4441 14.6231 75.929 14.0966 76.554 13.7216C77.179 13.3466 77.9176 13.1591 78.7699 13.1591C79.6222 13.1591 80.3608 13.3466 80.9858 13.7216C81.6108 14.0966 82.0938 14.6231 82.4347 15.3011C82.7794 15.9792 82.9517 16.7689 82.9517 17.6705C82.9517 18.572 82.7794 19.3598 82.4347 20.0341C82.0938 20.7083 81.6108 21.233 80.9858 21.608C80.3608 21.983 79.6222 22.1705 78.7699 22.1705ZM78.7812 20.5227C79.2434 20.5227 79.6297 20.3958 79.9403 20.142C80.2509 19.8845 80.482 19.5398 80.6335 19.108C80.7888 18.6761 80.8665 18.1951 80.8665 17.6648C80.8665 17.1307 80.7888 16.6477 80.6335 16.2159C80.482 15.7803 80.2509 15.4337 79.9403 15.1761C79.6297 14.9186 79.2434 14.7898 78.7812 14.7898C78.3078 14.7898 77.9138 14.9186 77.5994 15.1761C77.2888 15.4337 77.0559 15.7803 76.9006 16.2159C76.7491 16.6477 76.6733 17.1307 76.6733 17.6648C76.6733 18.1951 76.7491 18.6761 76.9006 19.108C77.0559 19.5398 77.2888 19.8845 77.5994 20.142C77.9138 20.3958 78.3078 20.5227 78.7812 20.5227ZM84.6974 22V13.2727H86.7543V22H84.6974ZM85.7315 12.0341C85.4058 12.0341 85.1255 11.9261 84.8906 11.7102C84.6558 11.4905 84.5384 11.2273 84.5384 10.9205C84.5384 10.6098 84.6558 10.3466 84.8906 10.1307C85.1255 9.91098 85.4058 9.80114 85.7315 9.80114C86.0611 9.80114 86.3414 9.91098 86.5724 10.1307C86.8073 10.3466 86.9247 10.6098 86.9247 10.9205C86.9247 11.2273 86.8073 11.4905 86.5724 11.7102C86.3414 11.9261 86.0611 12.0341 85.7315 12.0341ZM90.9261 16.8864V22H88.8693V13.2727H90.8352V14.7557H90.9375C91.1383 14.267 91.4583 13.8788 91.8977 13.5909C92.3409 13.303 92.8883 13.1591 93.5398 13.1591C94.142 13.1591 94.6667 13.2879 95.1136 13.5455C95.5644 13.803 95.9129 14.1761 96.1591 14.6648C96.4091 15.1534 96.5322 15.7462 96.5284 16.4432V22H94.4716V16.7614C94.4716 16.178 94.3201 15.7216 94.017 15.392C93.7178 15.0625 93.303 14.8977 92.7727 14.8977C92.4129 14.8977 92.0928 14.9773 91.8125 15.1364C91.536 15.2917 91.3182 15.517 91.1591 15.8125C91.0038 16.108 90.9261 16.4659 90.9261 16.8864Z" fill="white"/>
  <path d="M169.143 23.4545V8.90909H170.075V23.4545H169.143ZM171.831 13.5625C171.778 13.0663 171.554 12.6799 171.161 12.4034C170.77 12.1269 170.263 11.9886 169.638 11.9886C169.198 11.9886 168.821 12.0549 168.507 12.1875C168.193 12.3201 167.952 12.5 167.786 12.7273C167.619 12.9545 167.534 13.214 167.53 13.5057C167.53 13.7481 167.585 13.9583 167.695 14.1364C167.808 14.3144 167.962 14.4659 168.155 14.5909C168.348 14.7121 168.562 14.8144 168.797 14.8977C169.032 14.9811 169.268 15.0511 169.507 15.108L170.598 15.3807C171.037 15.483 171.46 15.6212 171.865 15.7955C172.274 15.9697 172.64 16.1894 172.962 16.4545C173.287 16.7197 173.545 17.0398 173.734 17.4148C173.924 17.7898 174.018 18.2292 174.018 18.733C174.018 19.4148 173.844 20.0152 173.496 20.5341C173.147 21.0492 172.643 21.4527 171.984 21.7443C171.329 22.0322 170.536 22.1761 169.604 22.1761C168.698 22.1761 167.912 22.036 167.246 21.7557C166.583 21.4754 166.064 21.0663 165.689 20.5284C165.318 19.9905 165.117 19.3352 165.087 18.5625H167.161C167.191 18.9678 167.316 19.3049 167.536 19.5739C167.755 19.8428 168.041 20.0436 168.393 20.1761C168.75 20.3087 169.147 20.375 169.587 20.375C170.045 20.375 170.446 20.3068 170.791 20.1705C171.14 20.0303 171.412 19.8371 171.609 19.5909C171.806 19.3409 171.907 19.0492 171.911 18.7159C171.907 18.4129 171.818 18.1629 171.643 17.9659C171.469 17.7652 171.225 17.5985 170.911 17.4659C170.6 17.3295 170.236 17.2083 169.82 17.1023L168.496 16.7614C167.537 16.5152 166.78 16.142 166.223 15.642C165.67 15.1383 165.393 14.4697 165.393 13.6364C165.393 12.9508 165.579 12.3504 165.95 11.8352C166.325 11.3201 166.835 10.9205 167.479 10.6364C168.123 10.3485 168.852 10.2045 169.666 10.2045C170.492 10.2045 171.215 10.3485 171.837 10.6364C172.462 10.9205 172.952 11.3163 173.308 11.8239C173.664 12.3277 173.848 12.9072 173.859 13.5625H171.831ZM179.753 22V20.4773L183.793 16.517C184.179 16.1269 184.501 15.7803 184.759 15.4773C185.016 15.1742 185.209 14.8807 185.338 14.5966C185.467 14.3125 185.531 14.0095 185.531 13.6875C185.531 13.3201 185.448 13.0057 185.281 12.7443C185.115 12.4792 184.885 12.2746 184.594 12.1307C184.302 11.9867 183.971 11.9148 183.599 11.9148C183.217 11.9148 182.882 11.9943 182.594 12.1534C182.306 12.3087 182.082 12.5303 181.923 12.8182C181.768 13.1061 181.69 13.4489 181.69 13.8466H179.685C179.685 13.108 179.853 12.4659 180.19 11.9205C180.527 11.375 180.991 10.9527 181.582 10.6534C182.177 10.3542 182.859 10.2045 183.628 10.2045C184.408 10.2045 185.094 10.3504 185.685 10.642C186.276 10.9337 186.734 11.3333 187.06 11.8409C187.389 12.3485 187.554 12.928 187.554 13.5795C187.554 14.0152 187.471 14.4432 187.304 14.8636C187.137 15.2841 186.844 15.75 186.423 16.2614C186.007 16.7727 185.421 17.392 184.668 18.1193L182.662 20.1591V20.2386H187.73V22H179.753ZM193.866 22.1591C193.048 22.1591 192.321 22.0189 191.685 21.7386C191.052 21.4583 190.552 21.0682 190.185 20.5682C189.817 20.0682 189.622 19.4905 189.599 18.8352H191.736C191.755 19.1496 191.859 19.4242 192.048 19.6591C192.238 19.8902 192.49 20.0701 192.804 20.1989C193.118 20.3277 193.471 20.392 193.861 20.392C194.277 20.392 194.647 20.3201 194.969 20.1761C195.291 20.0284 195.543 19.8239 195.724 19.5625C195.906 19.3011 195.995 19 195.991 18.6591C195.995 18.3068 195.904 17.9962 195.719 17.7273C195.533 17.4583 195.264 17.2481 194.912 17.0966C194.563 16.9451 194.143 16.8693 193.651 16.8693H192.622V15.2443H193.651C194.056 15.2443 194.41 15.1742 194.713 15.0341C195.02 14.8939 195.26 14.697 195.435 14.4432C195.609 14.1856 195.694 13.8883 195.69 13.5511C195.694 13.2216 195.62 12.9356 195.469 12.6932C195.321 12.447 195.111 12.2557 194.838 12.1193C194.569 11.983 194.253 11.9148 193.889 11.9148C193.533 11.9148 193.204 11.9792 192.901 12.108C192.598 12.2367 192.353 12.4205 192.168 12.6591C191.982 12.8939 191.884 13.1742 191.872 13.5H189.844C189.859 12.8485 190.046 12.2765 190.406 11.7841C190.77 11.2879 191.255 10.9015 191.861 10.625C192.467 10.3447 193.147 10.2045 193.901 10.2045C194.677 10.2045 195.351 10.3504 195.923 10.642C196.499 10.9299 196.944 11.3182 197.259 11.8068C197.573 12.2955 197.73 12.8352 197.73 13.4261C197.734 14.0814 197.541 14.6307 197.151 15.0739C196.764 15.517 196.257 15.8068 195.628 15.9432V16.0341C196.446 16.1477 197.073 16.4508 197.509 16.9432C197.948 17.4318 198.166 18.0398 198.162 18.767C198.162 19.4186 197.976 20.0019 197.605 20.517C197.238 21.0284 196.73 21.4299 196.082 21.7216C195.438 22.0133 194.7 22.1591 193.866 22.1591ZM202.206 20.4091L202.132 21.0341C202.079 21.5114 201.984 21.9962 201.848 22.4886C201.715 22.9848 201.575 23.4413 201.428 23.858C201.28 24.2746 201.161 24.6023 201.07 24.8409H199.683C199.736 24.6098 199.808 24.2955 199.899 23.8977C199.994 23.5 200.085 23.053 200.172 22.5568C200.259 22.0606 200.318 21.5568 200.348 21.0455L200.388 20.4091H202.206ZM208.273 22.1591C207.455 22.1591 206.727 22.0189 206.091 21.7386C205.458 21.4583 204.958 21.0682 204.591 20.5682C204.223 20.0682 204.028 19.4905 204.006 18.8352H206.142C206.161 19.1496 206.265 19.4242 206.455 19.6591C206.644 19.8902 206.896 20.0701 207.21 20.1989C207.525 20.3277 207.877 20.392 208.267 20.392C208.684 20.392 209.053 20.3201 209.375 20.1761C209.697 20.0284 209.949 19.8239 210.131 19.5625C210.313 19.3011 210.402 19 210.398 18.6591C210.402 18.3068 210.311 17.9962 210.125 17.7273C209.939 17.4583 209.67 17.2481 209.318 17.0966C208.97 16.9451 208.549 16.8693 208.057 16.8693H207.028V15.2443H208.057C208.462 15.2443 208.816 15.1742 209.119 15.0341C209.426 14.8939 209.667 14.697 209.841 14.4432C210.015 14.1856 210.1 13.8883 210.097 13.5511C210.1 13.2216 210.027 12.9356 209.875 12.6932C209.727 12.447 209.517 12.2557 209.244 12.1193C208.975 11.983 208.659 11.9148 208.295 11.9148C207.939 11.9148 207.61 11.9792 207.307 12.108C207.004 12.2367 206.759 12.4205 206.574 12.6591C206.388 12.8939 206.29 13.1742 206.278 13.5H204.25C204.265 12.8485 204.453 12.2765 204.812 11.7841C205.176 11.2879 205.661 10.9015 206.267 10.625C206.873 10.3447 207.553 10.2045 208.307 10.2045C209.083 10.2045 209.758 10.3504 210.33 10.642C210.905 10.9299 211.35 11.3182 211.665 11.8068C211.979 12.2955 212.136 12.8352 212.136 13.4261C212.14 14.0814 211.947 14.6307 211.557 15.0739C211.17 15.517 210.663 15.8068 210.034 15.9432V16.0341C210.852 16.1477 211.479 16.4508 211.915 16.9432C212.354 17.4318 212.572 18.0398 212.568 18.767C212.568 19.4186 212.383 20.0019 212.011 20.517C211.644 21.0284 211.136 21.4299 210.489 21.7216C209.845 22.0133 209.106 22.1591 208.273 22.1591ZM214.632 22V10.3636H219.087C219.928 10.3636 220.626 10.4962 221.183 10.7614C221.744 11.0227 222.162 11.3807 222.439 11.8352C222.719 12.2898 222.859 12.8049 222.859 13.3807C222.859 13.8542 222.768 14.2595 222.587 14.5966C222.405 14.9299 222.161 15.2008 221.854 15.4091C221.547 15.6174 221.204 15.767 220.825 15.858V15.9716C221.238 15.9943 221.634 16.1212 222.013 16.3523C222.395 16.5795 222.708 16.9015 222.95 17.3182C223.193 17.7348 223.314 18.2386 223.314 18.8295C223.314 19.4318 223.168 19.9735 222.876 20.4545C222.585 20.9318 222.145 21.3087 221.558 21.5852C220.971 21.8617 220.232 22 219.342 22H214.632ZM216.74 20.2386H219.007C219.772 20.2386 220.323 20.0928 220.661 19.8011C221.001 19.5057 221.172 19.1269 221.172 18.6648C221.172 18.3201 221.087 18.0095 220.916 17.733C220.746 17.4527 220.503 17.233 220.189 17.0739C219.875 16.911 219.5 16.8295 219.064 16.8295H216.74V20.2386ZM216.74 15.3125H218.825C219.189 15.3125 219.517 15.2462 219.808 15.1136C220.1 14.9773 220.329 14.786 220.496 14.5398C220.666 14.2898 220.751 13.9943 220.751 13.6534C220.751 13.2027 220.592 12.8314 220.274 12.5398C219.96 12.2481 219.492 12.1023 218.871 12.1023H216.74V15.3125Z" fill="white"/>
  <path d="M178.182 55L182.626 46.2102V46.1357H177.486V44.8182H184.217V46.1804L179.788 55H178.182ZM189.809 44.8182V55H188.268V46.3594H188.208L185.772 47.9503V46.4787L188.313 44.8182H189.809ZM193.929 53.608L193.855 54.1499C193.805 54.5476 193.721 54.9619 193.601 55.3928C193.485 55.8269 193.364 56.2296 193.238 56.6009C193.116 56.9721 193.015 57.267 192.935 57.4858H191.881C191.924 57.2803 191.984 57.0019 192.06 56.6506C192.136 56.3026 192.211 55.9131 192.284 55.4822C192.357 55.0514 192.411 54.6122 192.448 54.1648L192.498 53.608H193.929ZM199.194 55.1392C198.74 55.1326 198.293 55.0497 197.852 54.8906C197.414 54.7315 197.017 54.4664 196.659 54.0952C196.301 53.724 196.014 53.2251 195.799 52.5987C195.587 51.9723 195.48 51.1901 195.48 50.2521C195.48 49.3639 195.568 48.575 195.744 47.8857C195.923 47.1963 196.18 46.6146 196.515 46.1406C196.849 45.6634 197.254 45.3004 197.728 45.0518C198.202 44.8033 198.734 44.679 199.324 44.679C199.93 44.679 200.469 44.7983 200.939 45.0369C201.41 45.2756 201.791 45.6054 202.083 46.0263C202.378 46.4472 202.565 46.9261 202.645 47.4631H201.128C201.025 47.0388 200.822 46.6925 200.517 46.424C200.212 46.1555 199.814 46.0213 199.324 46.0213C198.578 46.0213 197.996 46.3461 197.578 46.9957C197.164 47.6454 196.955 48.5485 196.952 49.7053H197.027C197.202 49.4169 197.418 49.1716 197.673 48.9695C197.931 48.764 198.22 48.6065 198.538 48.4972C198.859 48.3845 199.198 48.3281 199.552 48.3281C200.142 48.3281 200.676 48.4723 201.153 48.7607C201.634 49.0457 202.016 49.4401 202.301 49.9439C202.587 50.4477 202.729 51.0244 202.729 51.674C202.729 52.3236 202.582 52.9119 202.287 53.4389C201.995 53.9659 201.584 54.3835 201.054 54.6918C200.523 54.9967 199.904 55.1458 199.194 55.1392ZM199.189 53.8466C199.58 53.8466 199.93 53.7505 200.238 53.5582C200.547 53.366 200.79 53.1075 200.969 52.7827C201.148 52.4579 201.238 52.0949 201.238 51.6939C201.238 51.3028 201.15 50.9465 200.974 50.625C200.802 50.3035 200.563 50.0483 200.258 49.8594C199.957 49.6705 199.612 49.576 199.224 49.576C198.929 49.576 198.656 49.6323 198.404 49.745C198.155 49.8577 197.936 50.0135 197.748 50.2124C197.559 50.4112 197.409 50.6399 197.3 50.8984C197.194 51.1536 197.141 51.4238 197.141 51.7088C197.141 52.09 197.229 52.4429 197.404 52.7678C197.583 53.0926 197.827 53.3544 198.135 53.5533C198.447 53.7488 198.798 53.8466 199.189 53.8466ZM207.98 55.1392C207.268 55.1392 206.638 55.0166 206.091 54.7713C205.548 54.526 205.122 54.188 204.813 53.7571C204.505 53.3262 204.353 52.8357 204.356 52.2855C204.353 51.8546 204.441 51.4586 204.619 51.0973C204.802 50.7327 205.049 50.4295 205.36 50.1875C205.672 49.9422 206.02 49.7865 206.404 49.7202V49.6605C205.897 49.5379 205.491 49.2661 205.186 48.8452C204.881 48.4242 204.731 47.9403 204.734 47.3935C204.731 46.8731 204.868 46.4091 205.146 46.0014C205.428 45.5904 205.814 45.2673 206.305 45.032C206.795 44.7966 207.354 44.679 207.98 44.679C208.6 44.679 209.154 44.7983 209.641 45.0369C210.131 45.2723 210.517 45.5954 210.799 46.0064C211.081 46.4141 211.223 46.8764 211.227 47.3935C211.223 47.9403 211.068 48.4242 210.759 48.8452C210.451 49.2661 210.05 49.5379 209.556 49.6605V49.7202C209.937 49.7865 210.28 49.9422 210.585 50.1875C210.894 50.4295 211.139 50.7327 211.321 51.0973C211.507 51.4586 211.601 51.8546 211.605 52.2855C211.601 52.8357 211.445 53.3262 211.137 53.7571C210.829 54.188 210.401 54.526 209.855 54.7713C209.311 55.0166 208.686 55.1392 207.98 55.1392ZM207.98 53.8814C208.401 53.8814 208.766 53.8118 209.074 53.6726C209.382 53.5301 209.621 53.3329 209.79 53.081C209.959 52.8258 210.045 52.5275 210.048 52.1861C210.045 51.8314 209.952 51.5182 209.77 51.2464C209.591 50.9747 209.347 50.7609 209.039 50.6051C208.731 50.4493 208.378 50.3714 207.98 50.3714C207.579 50.3714 207.223 50.4493 206.911 50.6051C206.6 50.7609 206.355 50.9747 206.176 51.2464C205.997 51.5182 205.909 51.8314 205.912 52.1861C205.909 52.5275 205.99 52.8258 206.156 53.081C206.325 53.3329 206.565 53.5301 206.877 53.6726C207.188 53.8118 207.556 53.8814 207.98 53.8814ZM207.98 49.1435C208.318 49.1435 208.618 49.0755 208.88 48.9396C209.142 48.8037 209.347 48.6148 209.497 48.3729C209.649 48.1309 209.727 47.8475 209.73 47.5227C209.727 47.2045 209.651 46.9261 209.502 46.6875C209.356 46.4489 209.152 46.2649 208.89 46.1357C208.628 46.0031 208.325 45.9368 207.98 45.9368C207.629 45.9368 207.321 46.0031 207.056 46.1357C206.794 46.2649 206.59 46.4489 206.444 46.6875C206.298 46.9261 206.227 47.2045 206.23 47.5227C206.227 47.8475 206.3 48.1309 206.449 48.3729C206.598 48.6148 206.804 48.8037 207.066 48.9396C207.331 49.0755 207.636 49.1435 207.98 49.1435ZM218.7 53.0909V52.554C218.7 52.1695 218.78 51.8182 218.939 51.5C219.101 51.1785 219.337 50.9216 219.645 50.7294C219.956 50.5339 220.333 50.4361 220.773 50.4361C221.224 50.4361 221.602 50.5322 221.907 50.7244C222.212 50.9167 222.442 51.1735 222.598 51.495C222.757 51.8165 222.837 52.1695 222.837 52.554V53.0909C222.837 53.4754 222.757 53.8284 222.598 54.1499C222.439 54.468 222.205 54.7249 221.897 54.9205C221.592 55.1127 221.218 55.2088 220.773 55.2088C220.326 55.2088 219.948 55.1127 219.64 54.9205C219.332 54.7249 219.098 54.468 218.939 54.1499C218.78 53.8284 218.7 53.4754 218.7 53.0909ZM219.859 52.554V53.0909C219.859 53.3759 219.927 53.6345 220.062 53.8665C220.198 54.0985 220.435 54.2145 220.773 54.2145C221.108 54.2145 221.342 54.0985 221.474 53.8665C221.607 53.6345 221.673 53.3759 221.673 53.0909V52.554C221.673 52.2689 221.609 52.0104 221.479 51.7784C221.353 51.5464 221.118 51.4304 220.773 51.4304C220.442 51.4304 220.207 51.5464 220.067 51.7784C219.928 52.0104 219.859 52.2689 219.859 52.554ZM213.58 47.2642V46.7273C213.58 46.3428 213.659 45.9898 213.818 45.6683C213.981 45.3468 214.216 45.09 214.524 44.8977C214.836 44.7055 215.212 44.6094 215.653 44.6094C216.103 44.6094 216.481 44.7055 216.786 44.8977C217.091 45.09 217.321 45.3468 217.477 45.6683C217.633 45.9898 217.711 46.3428 217.711 46.7273V47.2642C217.711 47.6487 217.631 48.0017 217.472 48.3232C217.317 48.6413 217.085 48.8982 216.776 49.0938C216.471 49.286 216.097 49.3821 215.653 49.3821C215.202 49.3821 214.822 49.286 214.514 49.0938C214.209 48.8982 213.977 48.6413 213.818 48.3232C213.659 48.0017 213.58 47.6487 213.58 47.2642ZM214.743 46.7273V47.2642C214.743 47.5492 214.809 47.8078 214.942 48.0398C215.078 48.2718 215.315 48.3878 215.653 48.3878C215.984 48.3878 216.216 48.2718 216.349 48.0398C216.485 47.8078 216.553 47.5492 216.553 47.2642V46.7273C216.553 46.4422 216.488 46.1837 216.359 45.9517C216.229 45.7197 215.994 45.6037 215.653 45.6037C215.321 45.6037 215.086 45.7197 214.947 45.9517C214.811 46.1837 214.743 46.4422 214.743 46.7273ZM214.052 55L221.052 44.8182H222.24L215.24 55H214.052Z" fill="white"/>
  <rect y="46" width="168" height="8" rx="4" fill="#353535"/>
  <rect y="46" width="120" height="8" rx="4" fill="#D81FE8"/>
  <defs>
    <clipPath id="clip0_27_947">
      <rect width="24" height="24" fill="white" transform="translate(4 4)"/>
    </clipPath>
  </defs>
</svg>