<svg width="151" height="32" viewBox="0 0 151 32" fill="none" xmlns="http://www.w3.org/2000/svg">
<path d="M49.984 25.338C48.7533 25.338 47.5963 25.0953 46.513 24.61C45.4297 24.116 44.4763 23.4357 43.653 22.569C42.8383 21.7023 42.197 20.7013 41.729 19.566C41.2697 18.422 41.04 17.2 41.04 15.9C41.04 14.5913 41.2697 13.3693 41.729 12.234C42.197 11.09 42.8383 10.089 43.653 9.231C44.4763 8.36433 45.4297 7.68833 46.513 7.203C47.5963 6.709 48.7533 6.462 49.984 6.462C51.4573 6.462 52.8137 6.80433 54.053 7.489C55.2923 8.165 56.3193 9.07067 57.134 10.206L53.65 12.078C53.1993 11.558 52.6577 11.142 52.025 10.83C51.3923 10.518 50.712 10.362 49.984 10.362C49.2907 10.362 48.6363 10.505 48.021 10.791C47.4143 11.077 46.877 11.4757 46.409 11.987C45.9497 12.4897 45.59 13.0747 45.33 13.742C45.07 14.4093 44.94 15.1287 44.94 15.9C44.94 16.6627 45.07 17.3777 45.33 18.045C45.59 18.7123 45.9497 19.3017 46.409 19.813C46.877 20.3157 47.4143 20.7143 48.021 21.009C48.6363 21.295 49.2907 21.438 49.984 21.438C50.712 21.438 51.3923 21.282 52.025 20.97C52.6577 20.6493 53.1993 20.2247 53.65 19.696L57.134 21.594C56.3193 22.7207 55.2923 23.6263 54.053 24.311C52.8137 24.9957 51.4573 25.338 49.984 25.338ZM59.3464 25L59.3334 12H63.2334L63.2464 12.819C63.6798 12.4463 64.1738 12.156 64.7284 11.948C65.2831 11.74 65.8681 11.636 66.4834 11.636C66.9514 11.636 67.4281 11.7053 67.9134 11.844L66.3794 15.796C66.0761 15.6573 65.7641 15.588 65.4434 15.588C65.0361 15.588 64.6634 15.6877 64.3254 15.887C63.9961 16.0777 63.7318 16.342 63.5324 16.68C63.3418 17.0093 63.2464 17.3777 63.2464 17.785V25H59.3464ZM78.1538 12H82.3138L75.1898 31.5H71.0558L73.3958 25L68.7158 12H72.9798L75.3458 19.67L78.1538 12ZM87.8877 31.5H83.9877V12H87.8877V13.222C88.2951 12.7627 88.7674 12.39 89.3047 12.104C89.8421 11.8093 90.4617 11.662 91.1637 11.662C92.1171 11.662 93.0054 11.8397 93.8287 12.195C94.6521 12.5503 95.3757 13.0443 95.9997 13.677C96.6324 14.301 97.1221 15.0247 97.4687 15.848C97.8241 16.6713 98.0017 17.5553 98.0017 18.5C98.0017 19.4447 97.8241 20.333 97.4687 21.165C97.1221 21.997 96.6324 22.7293 95.9997 23.362C95.3757 23.986 94.6521 24.4757 93.8287 24.831C93.0054 25.1863 92.1171 25.364 91.1637 25.364C90.4617 25.364 89.8421 25.2167 89.3047 24.922C88.7674 24.6273 88.2951 24.2547 87.8877 23.804V31.5ZM91.1117 15.406C90.5831 15.406 90.0977 15.549 89.6557 15.835C89.2224 16.1123 88.8757 16.485 88.6157 16.953C88.3557 17.421 88.2257 17.9367 88.2257 18.5C88.2257 19.072 88.3557 19.592 88.6157 20.06C88.8757 20.528 89.2224 20.9007 89.6557 21.178C90.0977 21.4553 90.5831 21.594 91.1117 21.594C91.6491 21.594 92.1387 21.4553 92.5807 21.178C93.0227 20.9007 93.3737 20.528 93.6337 20.06C93.8937 19.592 94.0237 19.072 94.0237 18.5C94.0237 17.9367 93.8937 17.421 93.6337 16.953C93.3737 16.485 93.0227 16.1123 92.5807 15.835C92.1387 15.549 91.6491 15.406 91.1117 15.406ZM107.235 15.9H105.025V25H101.125V15.9H99.4354V12H101.125V7.918H105.025V12H107.235V15.9ZM112.272 8.607V12H116.172V13.82H112.272V25H110.452V13.82H108.671V12H110.452V8.607C110.452 7.97433 110.604 7.40233 110.907 6.891C111.219 6.371 111.635 5.95933 112.155 5.656C112.675 5.344 113.252 5.188 113.884 5.188C114.344 5.188 114.786 5.279 115.21 5.461C115.644 5.643 116.029 5.91167 116.367 6.267L115.067 7.554C114.929 7.38067 114.751 7.24633 114.534 7.151C114.326 7.05567 114.11 7.008 113.884 7.008C113.442 7.008 113.061 7.164 112.74 7.476C112.428 7.788 112.272 8.165 112.272 8.607ZM123.68 25.338C122.484 25.338 121.392 25.0303 120.404 24.415C119.425 23.7997 118.641 22.9763 118.051 21.945C117.471 20.905 117.18 19.7567 117.18 18.5C117.18 17.5467 117.349 16.6583 117.687 15.835C118.025 15.003 118.489 14.275 119.078 13.651C119.676 13.0183 120.37 12.5243 121.158 12.169C121.947 11.8137 122.788 11.636 123.68 11.636C124.642 11.636 125.526 11.8267 126.332 12.208C127.147 12.5893 127.845 13.1223 128.425 13.807C129.015 14.4917 129.457 15.2933 129.751 16.212C130.055 17.1307 130.18 18.123 130.128 19.189H119.104C119.208 20.0123 119.468 20.749 119.884 21.399C120.309 22.049 120.846 22.5647 121.496 22.946C122.155 23.3187 122.883 23.5093 123.68 23.518C124.547 23.518 125.327 23.2927 126.02 22.842C126.722 22.3913 127.286 21.7717 127.71 20.983L129.556 21.412C129.036 22.5647 128.252 23.5093 127.203 24.246C126.155 24.974 124.98 25.338 123.68 25.338ZM119.052 17.72H128.295C128.235 16.914 127.988 16.1773 127.554 15.51C127.13 14.834 126.579 14.2967 125.903 13.898C125.227 13.4907 124.486 13.287 123.68 13.287C122.874 13.287 122.138 13.4863 121.47 13.885C120.803 14.275 120.257 14.808 119.832 15.484C119.408 16.1513 119.148 16.8967 119.052 17.72ZM136.399 25.247C135.689 25.2297 134.995 25.0997 134.319 24.857C133.643 24.6143 133.054 24.285 132.551 23.869C132.049 23.453 131.689 22.9807 131.472 22.452L133.045 21.776C133.184 22.114 133.44 22.426 133.812 22.712C134.194 22.9893 134.627 23.2147 135.112 23.388C135.598 23.5527 136.079 23.635 136.555 23.635C137.084 23.635 137.578 23.5483 138.037 23.375C138.497 23.2017 138.869 22.9547 139.155 22.634C139.45 22.3047 139.597 21.919 139.597 21.477C139.597 21.0003 139.441 20.6277 139.129 20.359C138.817 20.0817 138.423 19.865 137.946 19.709C137.47 19.5443 136.98 19.3883 136.477 19.241C135.559 18.9897 134.748 18.7123 134.046 18.409C133.344 18.1057 132.794 17.72 132.395 17.252C132.005 16.7753 131.81 16.1643 131.81 15.419C131.81 14.6303 132.031 13.95 132.473 13.378C132.924 12.7973 133.509 12.351 134.228 12.039C134.956 11.7183 135.732 11.558 136.555 11.558C137.613 11.558 138.575 11.7877 139.441 12.247C140.317 12.7063 140.949 13.3173 141.339 14.08L139.87 14.951C139.714 14.5957 139.467 14.288 139.129 14.028C138.791 13.768 138.406 13.5643 137.972 13.417C137.548 13.2697 137.114 13.1917 136.672 13.183C136.118 13.1743 135.602 13.2567 135.125 13.43C134.649 13.5947 134.263 13.8417 133.968 14.171C133.682 14.5003 133.539 14.9033 133.539 15.38C133.539 15.8567 133.682 16.2207 133.968 16.472C134.254 16.7147 134.64 16.914 135.125 17.07C135.619 17.2173 136.174 17.3907 136.789 17.59C137.578 17.8413 138.319 18.1273 139.012 18.448C139.706 18.7687 140.265 19.1673 140.689 19.644C141.114 20.1207 141.322 20.723 141.313 21.451C141.313 22.231 141.079 22.9113 140.611 23.492C140.143 24.0727 139.537 24.519 138.791 24.831C138.046 25.1343 137.249 25.273 136.399 25.247ZM150.197 13.82H147.09L147.077 25H145.257L145.27 13.82H142.917V12H145.27L145.257 7.918H147.077L147.09 12H150.197V13.82Z" fill="white"/>
<path d="M0 6.81818C0 4.70946 1.70946 3 3.81818 3H8.90909C11.0178 3 12.7273 4.70946 12.7273 6.81818V15.7273H3.81818C1.70946 15.7273 0 14.0178 0 11.9091V6.81818Z" fill="white"/>
<path d="M28 6.81818C28 4.70946 26.2905 3 24.1818 3H19.0909C16.9822 3 15.2727 4.70946 15.2727 6.81818V15.7273H24.1818C26.2905 15.7273 28 14.0178 28 11.9091V6.81818Z" fill="white"/>
<path d="M0 27.1818C0 29.2905 1.70946 31 3.81818 31H8.90909C11.0178 31 12.7273 29.2905 12.7273 27.1818V18.2727H3.81818C1.70946 18.2727 0 19.9822 0 22.0909V27.1818Z" fill="white"/>
</svg>
