<svg width="32" height="32" viewBox="0 0 32 32" fill="none" xmlns="http://www.w3.org/2000/svg">
<rect width="32" height="32" rx="16" fill="#50AF95"/>
<g clip-path="url(#clip0_489_80)">
<path fill-rule="evenodd" clip-rule="evenodd" d="M8.39452 4.11787L4.01848 14.6845C4.00183 14.7238 3.99655 14.7682 4.00342 14.8112C4.01029 14.8542 4.02895 14.8935 4.05666 14.9235L15.8753 27.9423C15.9089 27.9793 15.9536 28 16.0001 28C16.0466 28 16.0913 27.9793 16.1249 27.9423L27.9435 14.9243C27.9712 14.8943 27.9899 14.855 27.9968 14.812C28.0036 14.769 27.9984 14.7246 27.9817 14.6853L23.6057 4.11869C23.5915 4.0832 23.5688 4.05314 23.5402 4.03209C23.5117 4.01105 23.4784 3.99991 23.4445 4.00002H8.55715C8.52304 3.99953 8.48953 4.0104 8.46068 4.03131C8.43182 4.05222 8.40885 4.08229 8.39452 4.11787Z" fill="#50AF95"/>
<path fill-rule="evenodd" clip-rule="evenodd" d="M17.5184 15.7696C17.4335 15.7769 16.9951 15.807 16.0173 15.807C15.2395 15.807 14.6873 15.7801 14.4935 15.7696C11.4878 15.6176 9.24427 15.0161 9.24427 14.2959C9.24427 13.5758 11.4878 12.9751 14.4935 12.8207V15.1705C14.6901 15.1868 15.2529 15.225 16.0307 15.225C16.964 15.225 17.4314 15.1803 17.5155 15.1713V12.8223C20.5149 12.9759 22.7535 13.5774 22.7535 14.2959C22.7535 15.0145 20.5156 15.6159 17.5155 15.7688L17.5184 15.7696ZM17.5184 12.5793V10.4765H21.7042V7.26996H10.3077V10.4765H14.4928V12.5785C11.0911 12.7581 8.53296 13.5327 8.53296 14.4609C8.53296 15.3892 11.0911 16.163 14.4928 16.3434V23.0817H17.5177V16.341C20.9116 16.1613 23.4655 15.3875 23.4655 14.4601C23.4655 13.5327 20.9137 12.7589 17.5177 12.5785L17.5184 12.5793Z" fill="white"/>
</g>
<defs>
<clipPath id="clip0_489_80">
<rect width="24" height="24" fill="white" transform="translate(4 4)"/>
</clipPath>
</defs>
</svg>
