<svg width="32" height="32" viewBox="0 0 32 32" fill="none" xmlns="http://www.w3.org/2000/svg">
<rect width="32" height="32" rx="16" fill="#F00500"/>
<g clip-path="url(#clip0_489_89)">
<path d="M21.5726 6.1115C20.948 6.72906 20.3758 7.3984 19.8672 8.11211L19.7063 8.06034C18.7788 7.7608 17.8176 7.5759 16.8489 7.51304C16.5572 7.49085 15.4688 7.49085 15.1135 7.51304C14.0401 7.5833 13.2173 7.74231 12.2823 8.06404C12.2449 8.07883 12.2112 8.08992 12.1776 8.10102C11.6502 7.391 11.063 6.72536 10.416 6.1152C13.5203 4.54355 17.1519 4.35495 20.402 5.59378C20.7498 5.72321 21.0902 5.87483 21.423 6.03754L21.5726 6.1115Z" fill="#F00500"/>
<path d="M27.3622 20.138C26.891 21.4656 26.1841 22.6971 25.2678 23.7695C24.7704 24.3464 24.2206 24.8752 23.6296 25.3559C22.2458 26.4579 20.6301 27.2456 18.9059 27.6598C16.9985 28.1146 15.0088 28.1146 13.1014 27.6598C11.3735 27.2456 9.76149 26.4579 8.37766 25.3559C7.78673 24.8752 7.23694 24.3464 6.73951 23.7695C4.10277 20.689 3.30239 16.4585 4.64508 12.6459C4.8994 11.9396 5.21731 11.2591 5.59879 10.612C5.77457 10.3161 5.9915 9.98333 6.09622 9.8465C6.45527 11.3738 6.89659 12.7162 7.06116 13.2006C7.04994 13.2265 7.03498 13.2561 7.02002 13.2819C6.14858 15.0274 5.67733 16.71 5.56513 18.4998C5.56513 18.522 5.56139 18.5479 5.56139 18.5701C5.53147 19.1063 5.54643 19.3615 5.63619 19.698C5.9167 20.7519 6.78065 21.9131 8.13456 23.0521C10.3524 24.9159 13.3594 26.2619 15.6371 26.4172C18.0121 26.5763 21.5165 25.2043 23.8503 23.2C24.2168 22.8783 24.5609 22.538 24.8826 22.1756C25.1145 21.9094 25.4585 21.4508 25.4324 21.4508C25.4249 21.4508 25.4324 21.4434 25.4473 21.436C25.4585 21.4286 25.4698 21.4175 25.4623 21.4101C25.4585 21.4065 25.466 21.3954 25.4772 21.3917C25.4885 21.388 25.4959 21.3806 25.4922 21.3732C25.4885 21.3658 25.4922 21.3584 25.5072 21.3547C25.5184 21.351 25.5221 21.3399 25.5184 21.3325C25.5146 21.3251 25.5184 21.3177 25.5259 21.3177C25.5333 21.3177 25.5408 21.3066 25.5408 21.2992C25.5408 21.2918 25.5483 21.2807 25.5558 21.2807C25.5633 21.2807 25.5707 21.2733 25.5707 21.2659C25.582 21.2363 25.6007 21.2068 25.6194 21.1809C25.6755 21.0958 25.8999 20.7001 25.9298 20.6336C26.143 20.1565 26.2776 19.7313 26.3412 19.306C26.3711 19.1026 26.3898 18.7291 26.3749 18.6403C26.3711 18.6256 26.3711 18.5997 26.3674 18.559C26.3599 18.485 26.3562 18.3741 26.3487 18.2632C26.3412 18.0967 26.3262 17.8638 26.315 17.7491C26.1542 16.0702 25.7203 14.6983 24.8975 13.245C24.8639 13.1895 24.8339 13.134 24.8152 13.0896C24.8078 13.0786 24.804 13.0675 24.8003 13.0601C24.9162 12.7162 25.3912 11.2776 25.769 9.63202L25.7764 9.63942L25.8325 9.71338C25.9298 9.84281 26.1878 10.2274 26.3038 10.4123C26.8311 11.2628 27.2425 12.1762 27.5343 13.1303C28.2112 15.4268 28.1551 17.8749 27.3622 20.138Z" fill="#F00500"/>
<path d="M22.5077 15.7189C22.4965 15.778 22.3207 15.9556 22.1449 16.085C21.6288 16.4585 20.7049 16.8061 19.7662 16.9725C19.2313 17.0687 18.6965 17.0834 18.5357 17.0058C18.431 16.954 18.416 16.9133 18.4534 16.7802C18.532 16.5029 18.7863 16.1996 19.1827 15.9149C19.3847 15.7707 20.2038 15.2788 20.5853 15.0717C21.2136 14.7315 21.7223 14.5281 22.0663 14.48C22.1748 14.4653 22.3057 14.4616 22.3469 14.48C22.4142 14.5059 22.489 14.7019 22.5189 14.9386C22.5339 15.0643 22.5264 15.619 22.5077 15.7189Z" fill="black"/>
<path d="M13.6961 16.9429C13.6736 16.9873 13.5614 17.0354 13.4342 17.0538C13.3071 17.0723 12.9181 17.0612 12.6975 17.0354C11.9046 16.9318 11.063 16.6914 10.4497 16.3956C10.1056 16.2292 9.85873 16.0628 9.67547 15.8816L9.57075 15.7743L9.55953 15.6338C9.54083 15.3897 9.54457 15.0052 9.57449 14.8683C9.59319 14.7537 9.63433 14.6427 9.69043 14.5429C9.72035 14.5059 9.72035 14.5059 9.85499 14.5059C10.0196 14.5059 10.1579 14.5318 10.3823 14.6021C10.8424 14.7426 11.5268 15.0828 12.3608 15.5783C13.049 15.9851 13.3071 16.1848 13.5053 16.4585C13.64 16.6286 13.7297 16.8689 13.6961 16.9429Z" fill="black"/>
<path d="M18.992 22.0905C18.992 22.1016 18.9471 22.2791 18.891 22.4899C18.8349 22.7007 18.7901 22.8708 18.7901 22.8782C18.7489 22.8819 18.7115 22.8856 18.6704 22.8819H18.5507L18.3861 23.2665C18.2964 23.4773 18.2141 23.6733 18.2029 23.7028L18.1804 23.7546L18.1019 23.6289L18.0233 23.5032V22.4788L17.9934 22.4862C17.9298 22.501 17.4773 22.5602 17.2791 22.5787C16.46 22.66 15.6372 22.6415 14.8218 22.5269C14.6909 22.5084 14.5787 22.4936 14.575 22.4973C14.5712 22.501 14.575 22.7377 14.5825 23.0298L14.5937 23.5549L14.5301 23.6511C14.4964 23.7029 14.4628 23.7472 14.4628 23.7509C14.4516 23.762 14.4142 23.7028 14.3281 23.5327C14.2346 23.3552 14.1673 23.1666 14.1187 22.9706L14.0925 22.8634L13.9766 22.8708L13.8606 22.8819L13.8307 22.7451C13.8157 22.6711 13.797 22.5565 13.7896 22.4936L13.7783 22.3753L13.6811 22.2902C13.625 22.2421 13.5689 22.1941 13.5577 22.1867C13.539 22.1719 13.5315 22.146 13.5315 22.1238V22.0794L13.999 22.0831L14.4665 22.0868L14.4815 22.1349L14.4964 22.183L14.6573 22.1904C14.747 22.1941 15.0313 22.2015 15.2856 22.2089L15.7531 22.22L15.8728 22.0351L15.9962 21.8502H16.1533L16.1496 21.4656L16.1458 21.081L15.9401 20.9922C15.2781 20.7038 14.8891 20.3747 14.7433 19.9753C14.7134 19.8939 14.7134 19.8643 14.7059 19.4945C14.7021 19.1284 14.7021 19.0951 14.7283 19.0138C14.7807 18.8289 14.9265 18.6847 15.1136 18.6366C15.1771 18.6181 15.3454 18.6181 16.2281 18.6181L17.2678 18.6218L17.3838 18.6773C17.5222 18.7438 17.5857 18.7919 17.6643 18.8955C17.7541 19.0138 17.7802 19.1062 17.7802 19.3318C17.7802 19.6535 17.7578 19.9309 17.7241 20.0418C17.6755 20.1934 17.6007 20.3377 17.5072 20.4671C17.3202 20.7038 16.9799 20.9404 16.6694 21.0477L16.5797 21.081L16.5834 21.4693L16.5871 21.8575L16.6694 21.8649L16.7517 21.8723L16.8639 22.0388L16.9724 22.2052H17.4735C17.7503 22.2052 17.9934 22.2089 18.0159 22.2126C18.0533 22.22 18.0607 22.2163 18.0981 22.1534L18.143 22.0868H18.5731C18.8948 22.072 18.992 22.0794 18.992 22.0905Z" fill="black"/>
<path d="M17.0173 23.1519C16.9462 23.1925 16.8976 23.211 16.8864 23.2036C16.8752 23.1999 16.8228 23.1556 16.7667 23.1149L16.6657 23.0335L16.561 23.1445C16.3328 23.3885 16.3254 23.3996 16.258 23.4033C16.1533 23.4144 16.1309 23.3959 16.0037 23.2073C15.9364 23.1112 15.884 23.0298 15.884 23.0298C15.884 23.0298 15.8354 23.0224 15.7793 23.0187L15.6746 23.0076L15.626 23.1075L15.5774 23.2073L15.4913 23.1815C15.424 23.1593 15.3567 23.1334 15.2931 23.1038L15.1809 23.0483V22.8375L16.1758 22.8412L17.1706 22.8449L17.1744 22.9448C17.1781 23.0631 17.1818 23.0594 17.0173 23.1519Z" fill="black"/>
<path d="M26.3674 18.6403C26.3636 18.6255 26.3636 18.5996 26.3599 18.5589C25.4623 18.4628 22.9003 18.4036 20.5216 20.3451C20.5216 20.3451 19.7549 16.869 16.1645 16.869C12.574 16.869 11.2425 20.3451 11.2425 20.3451C9.23037 18.2039 6.53753 18.3592 5.56511 18.4998C5.56511 18.522 5.56137 18.5478 5.56137 18.57C5.53145 19.1062 5.54641 19.3614 5.63617 19.6979C5.91667 20.7519 6.78063 21.913 8.13453 23.052C10.3524 24.9158 13.3594 26.2619 15.6371 26.4172C18.012 26.5762 21.5165 25.2042 23.8503 23.1999C24.2168 22.8782 24.5609 22.538 24.8825 22.1756C25.1144 21.9093 25.4585 21.4508 25.4323 21.4508C25.4249 21.4508 25.4323 21.4434 25.4473 21.436C25.4585 21.4286 25.4697 21.4175 25.4623 21.4101C25.4585 21.4064 25.466 21.3953 25.4772 21.3916C25.4884 21.3879 25.4959 21.3805 25.4922 21.3731C25.4884 21.3657 25.4922 21.3583 25.5071 21.3546C25.5184 21.3509 25.5221 21.3398 25.5184 21.3324C25.5146 21.325 25.5184 21.3176 25.5258 21.3176C25.5333 21.3176 25.5408 21.3066 25.5408 21.2992C25.5408 21.2918 25.5483 21.2807 25.5558 21.2807C25.5632 21.2807 25.5707 21.2733 25.5707 21.2659C25.5819 21.2363 25.6006 21.2067 25.6193 21.1808C25.6754 21.0958 25.8998 20.7001 25.9298 20.6335C26.143 20.1565 26.2776 19.7312 26.3412 19.3059C26.3636 19.1025 26.3823 18.7291 26.3674 18.6403ZM17.0172 23.1519C16.9461 23.1925 16.8975 23.211 16.8863 23.2036C16.8751 23.1999 16.8227 23.1556 16.7666 23.1149L16.6656 23.0335L16.5609 23.1445C16.3328 23.3885 16.3253 23.3996 16.258 23.4033C16.1532 23.4144 16.1308 23.3959 16.0036 23.2073C15.9363 23.1112 15.884 23.0298 15.884 23.0298C15.884 23.0298 15.8353 23.0224 15.7792 23.0187L15.6745 23.0076L15.6259 23.1075L15.5773 23.2073L15.4912 23.1814C15.4239 23.1592 15.3566 23.1334 15.293 23.1038L15.1808 23.0483V22.8375L16.1757 22.8412L17.1705 22.8449L17.1743 22.9448C17.178 23.0631 17.1818 23.0594 17.0172 23.1519ZM18.8872 22.4862C18.8311 22.697 18.7862 22.8671 18.7862 22.8745C18.7451 22.8782 18.7077 22.8819 18.6666 22.8782H18.5469L18.3861 23.2665C18.2963 23.4773 18.214 23.6733 18.2028 23.7029L18.1804 23.7546L18.1018 23.6289L18.0233 23.5032V22.4788L17.9933 22.4862C17.9298 22.501 17.4772 22.5602 17.279 22.5787C16.4599 22.66 15.6371 22.6415 14.8218 22.5269C14.6909 22.5084 14.5787 22.4936 14.5749 22.4973C14.5712 22.501 14.5749 22.7377 14.5824 23.0298L14.5936 23.5549L14.53 23.6511C14.4964 23.7029 14.4627 23.7472 14.4627 23.7509C14.4515 23.762 14.4141 23.7029 14.3281 23.5327C14.2346 23.3552 14.1673 23.1666 14.1186 22.9707L14.0925 22.8634L13.9765 22.8708L13.8606 22.8819L13.8307 22.7451C13.8157 22.6711 13.797 22.5565 13.7895 22.4936L13.7783 22.3753L13.6811 22.2902C13.6249 22.2421 13.5689 22.1941 13.5576 22.1867C13.5389 22.1719 13.5314 22.146 13.5314 22.1238V22.0794L13.999 22.0831L14.4665 22.0868L14.4814 22.1349L14.4964 22.183L14.6572 22.1904C14.747 22.1941 15.0312 22.2015 15.2855 22.2089L15.753 22.22L15.8727 22.0351L15.9962 21.8502H16.1532L16.1495 21.4656L16.1458 21.081L15.9401 20.9922C15.2781 20.7038 14.8891 20.3747 14.7432 19.9753C14.7133 19.8939 14.7133 19.8643 14.7058 19.4945C14.7021 19.1284 14.7021 19.0952 14.7283 19.0138C14.7806 18.8289 14.9265 18.6847 15.1135 18.6366C15.1771 18.6181 15.3454 18.6181 16.228 18.6181L17.2678 18.6218L17.3837 18.6773C17.5221 18.7438 17.5857 18.7919 17.6642 18.8955C17.754 19.0138 17.7802 19.1062 17.7802 19.3318C17.7802 19.6535 17.7577 19.9309 17.7241 20.0418C17.6754 20.1935 17.6006 20.3377 17.5071 20.4671C17.3201 20.7038 16.9798 20.9405 16.6694 21.0477L16.5796 21.081L16.5833 21.4693L16.5871 21.8576L16.6694 21.8649L16.7516 21.8723L16.8638 22.0388L16.9723 22.2052H17.4735C17.7502 22.2052 17.9933 22.2089 18.0158 22.2126C18.0532 22.22 18.0607 22.2163 18.0981 22.1534L18.143 22.0868H18.5731C18.9059 22.0868 19.0032 22.0905 19.0032 22.1016C18.9919 22.0979 18.9433 22.2791 18.8872 22.4862Z" fill="white"/>
<path d="M26.3374 18.2631C26.3299 18.0967 26.315 17.8637 26.3038 17.7491C26.1429 16.0702 25.7091 14.6982 24.8863 13.2449C24.8526 13.1894 24.8227 13.134 24.804 13.0896C24.7965 13.0785 24.7928 13.0674 24.789 13.06C24.905 12.7161 25.38 11.2776 25.7577 9.63196C26.2701 7.39837 26.5955 4.78759 25.6006 4.00362C25.6006 4.00362 23.8802 3.87789 21.5763 6.11147C20.9517 6.72904 20.3795 7.39838 19.8708 8.11209L19.71 8.06032C18.7825 7.76078 17.8213 7.57588 16.8526 7.51301C16.5609 7.49082 15.4725 7.49082 15.1172 7.51301C14.0438 7.58327 13.221 7.74229 12.286 8.06401C12.2486 8.07881 12.2149 8.0899 12.1813 8.10099C11.6539 7.39098 11.0667 6.72534 10.4197 6.11517C8.02232 3.87049 6.23831 3.99992 6.23831 3.99992C5.18361 4.80978 5.54266 7.5389 6.08871 9.84645C6.44775 11.3737 6.88908 12.7161 7.05364 13.2005C7.04242 13.2264 7.02746 13.256 7.0125 13.2819C6.14107 15.0273 5.66982 16.7099 5.55762 18.4998C6.53377 18.3592 9.22288 18.2002 11.2388 20.3451C11.2388 20.3451 12.5702 16.8689 16.1607 16.8689C19.7512 16.8689 20.5179 20.3451 20.5179 20.3451C22.8966 18.4036 25.4585 18.4665 26.3561 18.5589C26.3524 18.485 26.3449 18.374 26.3374 18.2631ZM7.76052 11.8064C7.76052 11.8064 6.36173 8.34876 6.72078 6.37403C6.78062 6.04121 6.89282 5.74907 7.0686 5.52719C7.0686 5.52719 8.65439 5.68251 11.2126 8.49298C11.2126 8.49298 10.7264 8.72596 10.0756 9.22149C10.0756 9.22149 10.0719 9.22518 10.0681 9.22518C9.36126 9.76139 8.45617 10.6119 7.76052 11.8064ZM13.696 16.9429C13.6736 16.9873 13.5614 17.0353 13.4342 17.0538C13.307 17.0723 12.9181 17.0612 12.6974 17.0353C11.9045 16.9318 11.063 16.6914 10.4496 16.3956C10.1055 16.2292 9.85869 16.0628 9.67543 15.8816L9.57071 15.7743L9.55949 15.6338C9.54079 15.3897 9.54453 15.0051 9.57445 14.8683C9.59315 14.7537 9.63429 14.6427 9.69039 14.5429C9.72031 14.5059 9.72031 14.5059 9.85495 14.5059C10.0195 14.5059 10.1579 14.5318 10.3823 14.6021C10.8423 14.7426 11.5268 15.0828 12.3608 15.5783C13.049 15.9851 13.307 16.1848 13.5053 16.4585C13.6399 16.6286 13.7297 16.8689 13.696 16.9429ZM22.5076 15.7189C22.4964 15.778 22.3206 15.9555 22.1448 16.085C21.6287 16.4585 20.7049 16.8061 19.7661 16.9725C19.2313 17.0686 18.6965 17.0834 18.5356 17.0058C18.4309 16.954 18.416 16.9133 18.4534 16.7802C18.5319 16.5028 18.7862 16.1996 19.1827 15.9149C19.3846 15.7706 20.2037 15.2788 20.5852 15.0717C21.2135 14.7315 21.7222 14.5281 22.0663 14.48C22.1747 14.4652 22.3056 14.4615 22.3468 14.48C22.4141 14.5059 22.4889 14.7019 22.5188 14.9386C22.5338 15.0643 22.5263 15.619 22.5076 15.7189ZM21.8867 9.22149L21.8793 9.21779C21.2509 8.72226 20.7797 8.48928 20.7797 8.48928C23.2519 5.67881 24.7816 5.52349 24.7816 5.52349C24.9499 5.74907 25.0583 6.03751 25.1182 6.37033C25.466 8.34506 24.1158 11.8064 24.1158 11.8064C23.5511 10.8116 22.7918 9.9315 21.8867 9.22149Z" fill="#FFA409"/>
<path d="M25.122 6.37034C24.8302 6.33336 23.4502 6.32596 21.8868 9.2215L21.8794 9.2178C21.251 8.72227 20.7798 8.48929 20.7798 8.48929C23.252 5.67881 24.7816 5.5235 24.7816 5.5235C24.9537 5.74908 25.0621 6.03752 25.122 6.37034Z" fill="#FF9300"/>
<path d="M24.1195 11.8064C23.551 10.8079 22.7956 9.93149 21.8867 9.22148C23.4501 6.32595 24.8264 6.33334 25.1219 6.37032C25.4697 8.34875 24.1195 11.8064 24.1195 11.8064Z" fill="#FF8300"/>
<path d="M25.1782 6.38145C25.1595 6.37776 25.1408 6.37406 25.1221 6.37036L25.1782 6.38145Z" fill="#FF8300"/>
<path d="M11.2128 8.48929C11.2128 8.48929 10.7266 8.72227 10.0759 9.2178C10.0759 9.2178 10.0721 9.2215 10.0684 9.2215C8.44893 6.32227 7.02397 6.33336 6.71729 6.37034C6.77713 6.03752 6.88933 5.74538 7.06511 5.5235C7.06885 5.5235 8.65464 5.67881 11.2128 8.48929Z" fill="#FF9300"/>
<path d="M10.0722 9.22148C9.36154 9.76139 8.45644 10.6082 7.76079 11.8064C7.76079 11.8064 6.362 8.34875 6.72105 6.37032C7.02399 6.33334 8.4527 6.32595 10.0722 9.22148Z" fill="#FF8300"/>
<path d="M6.72097 6.37036C6.70227 6.37406 6.67983 6.37776 6.66113 6.38145L6.72097 6.37036Z" fill="#FF8300"/>
<path d="M20.3348 13.7257C20.3348 13.7257 19.138 13.7996 19.2876 12.8751C19.4372 11.9506 20.3722 11.8397 20.634 11.8767C20.8958 11.9136 21.943 12.2834 21.756 13.06C21.569 13.8366 21.3072 13.6887 21.1576 13.7257C21.008 13.7626 20.3348 13.7257 20.3348 13.7257Z" fill="white"/>
<path d="M11.5082 13.7257C11.5082 13.7257 10.3113 13.7996 10.4609 12.8751C10.6105 11.9506 11.5456 11.8397 11.8074 11.8767C12.0692 11.9136 13.1164 12.2834 12.9294 13.06C12.7424 13.8366 12.4806 13.6887 12.331 13.7257C12.1814 13.7626 11.5082 13.7257 11.5082 13.7257Z" fill="white"/>
</g>
<defs>
<clipPath id="clip0_489_89">
<rect width="24" height="24" fill="white" transform="translate(4 4)"/>
</clipPath>
</defs>
</svg>
