<svg width="120" height="35" viewBox="0 0 120 35" fill="none" xmlns="http://www.w3.org/2000/svg">
<rect y="0.727539" width="34" height="34" rx="17" fill="url(#paint0_linear_104_530)"/>
<g clip-path="url(#clip0_104_530)">
<path d="M16.9979 5.72754L16.8369 6.27447V22.1436L16.9979 22.3043L24.3641 17.9501L16.9979 5.72754Z" fill="#343434"/>
<path d="M16.9979 5.72754L9.63159 17.9501L16.9979 22.3043V14.6018V5.72754Z" fill="#8C8C8C"/>
<path d="M16.998 23.699L16.9072 23.8096V29.4625L16.998 29.7274L24.3686 19.347L16.998 23.699Z" fill="#3C3C3B"/>
<path d="M16.9979 29.7274V23.699L9.63159 19.347L16.9979 29.7274Z" fill="#8C8C8C"/>
<path d="M16.998 22.3043L24.3642 17.9501L16.998 14.6018V22.3043Z" fill="#141414"/>
<path d="M9.63159 17.9501L16.9979 22.3043V14.6018L9.63159 17.9501Z" fill="#393939"/>
</g>
<path d="M46.1477 23.7012V12.0648H53.7159V13.8319H48.2557V16.9909H53.3239V18.758H48.2557V21.9341H53.7614V23.7012H46.1477ZM60.1335 14.9739V16.5648H55.1165V14.9739H60.1335ZM56.3551 12.883H58.4119V21.0762C58.4119 21.3527 58.4536 21.5648 58.5369 21.7125C58.6241 21.8565 58.7377 21.955 58.8778 22.008C59.018 22.061 59.1733 22.0875 59.3438 22.0875C59.4725 22.0875 59.59 22.0781 59.696 22.0591C59.8059 22.0402 59.8892 22.0231 59.946 22.008L60.2926 23.6159C60.1828 23.6538 60.0256 23.6955 59.821 23.7409C59.6203 23.7864 59.3741 23.8129 59.0824 23.8205C58.5672 23.8356 58.1032 23.758 57.6903 23.5875C57.2775 23.4133 56.9498 23.1444 56.7074 22.7807C56.4688 22.4171 56.3513 21.9625 56.3551 21.4171V12.883ZM64.098 18.5875V23.7012H62.0412V12.0648H64.0526V16.4569H64.1548C64.3594 15.9644 64.6757 15.5762 65.1037 15.2921C65.5355 15.0042 66.0848 14.8603 66.7514 14.8603C67.3575 14.8603 67.8859 14.9872 68.3366 15.2409C68.7874 15.4947 69.1359 15.8659 69.3821 16.3546C69.6321 16.8432 69.7571 17.4398 69.7571 18.1444V23.7012H67.7003V18.4625C67.7003 17.8754 67.5488 17.419 67.2457 17.0932C66.9465 16.7637 66.526 16.5989 65.9844 16.5989C65.6207 16.5989 65.295 16.6784 65.0071 16.8375C64.723 16.9928 64.4995 17.2182 64.3366 17.5137C64.1776 17.8091 64.098 18.1671 64.098 18.5875ZM75.7173 23.8716C74.8423 23.8716 74.0866 23.6898 73.4503 23.3262C72.8177 22.9587 72.331 22.4398 71.9901 21.7694C71.6491 21.0951 71.4787 20.3016 71.4787 19.3887C71.4787 18.4909 71.6491 17.7031 71.9901 17.025C72.3348 16.3432 72.8158 15.8129 73.4332 15.4341C74.0507 15.0516 74.776 14.8603 75.6094 14.8603C76.1473 14.8603 76.6548 14.9474 77.1321 15.1216C77.6132 15.2921 78.0374 15.5572 78.4048 15.9171C78.776 16.2769 79.0677 16.7353 79.2798 17.2921C79.492 17.8451 79.598 18.5042 79.598 19.2694V19.9H72.4446V18.5137H77.6264C77.6226 18.1197 77.5374 17.7694 77.3707 17.4625C77.2041 17.1519 76.9711 16.9076 76.6719 16.7296C76.3764 16.5516 76.0317 16.4625 75.6378 16.4625C75.2173 16.4625 74.848 16.5648 74.5298 16.7694C74.2116 16.9701 73.9635 17.2353 73.7855 17.5648C73.6113 17.8906 73.5223 18.2485 73.5185 18.6387V19.8489C73.5185 20.3565 73.6113 20.7921 73.7969 21.1557C73.9825 21.5156 74.242 21.7921 74.5753 21.9853C74.9086 22.1747 75.2988 22.2694 75.7457 22.2694C76.045 22.2694 76.3158 22.2277 76.5582 22.1444C76.8007 22.0572 77.0109 21.9303 77.1889 21.7637C77.367 21.597 77.5014 21.3906 77.5923 21.1444L79.5128 21.3603C79.3916 21.8678 79.1605 22.311 78.8196 22.6898C78.4825 23.0648 78.0507 23.3565 77.5241 23.5648C76.9976 23.7694 76.3954 23.8716 75.7173 23.8716ZM81.3381 23.7012V14.9739H83.3324V16.4284H83.4233C83.5824 15.9247 83.8551 15.5364 84.2415 15.2637C84.6316 14.9872 85.0767 14.8489 85.5767 14.8489C85.6903 14.8489 85.8172 14.8546 85.9574 14.8659C86.1013 14.8735 86.2206 14.8868 86.3153 14.9057V16.7978C86.2282 16.7675 86.09 16.7409 85.9006 16.7182C85.715 16.6917 85.535 16.6784 85.3608 16.6784C84.9858 16.6784 84.6487 16.7599 84.3494 16.9228C84.054 17.0819 83.821 17.3034 83.6506 17.5875C83.4801 17.8716 83.3949 18.1993 83.3949 18.5705V23.7012H81.3381ZM91.1861 23.8716C90.3111 23.8716 89.5554 23.6898 88.919 23.3262C88.2865 22.9587 87.7997 22.4398 87.4588 21.7694C87.1179 21.0951 86.9474 20.3016 86.9474 19.3887C86.9474 18.4909 87.1179 17.7031 87.4588 17.025C87.8035 16.3432 88.2846 15.8129 88.902 15.4341C89.5194 15.0516 90.2448 14.8603 91.0781 14.8603C91.616 14.8603 92.1236 14.9474 92.6009 15.1216C93.0819 15.2921 93.5062 15.5572 93.8736 15.9171C94.2448 16.2769 94.5365 16.7353 94.7486 17.2921C94.9607 17.8451 95.0668 18.5042 95.0668 19.2694V19.9H87.9134V18.5137H93.0952C93.0914 18.1197 93.0062 17.7694 92.8395 17.4625C92.6728 17.1519 92.4399 16.9076 92.1406 16.7296C91.8452 16.5516 91.5005 16.4625 91.1065 16.4625C90.6861 16.4625 90.3168 16.5648 89.9986 16.7694C89.6804 16.9701 89.4323 17.2353 89.2543 17.5648C89.08 17.8906 88.991 18.2485 88.9872 18.6387V19.8489C88.9872 20.3565 89.08 20.7921 89.2656 21.1557C89.4512 21.5156 89.7107 21.7921 90.044 21.9853C90.3774 22.1747 90.7675 22.2694 91.2145 22.2694C91.5137 22.2694 91.7846 22.2277 92.027 22.1444C92.2694 22.0572 92.4796 21.9303 92.6577 21.7637C92.8357 21.597 92.9702 21.3906 93.0611 21.1444L94.9815 21.3603C94.8603 21.8678 94.6293 22.311 94.2884 22.6898C93.9512 23.0648 93.5194 23.3565 92.9929 23.5648C92.4664 23.7694 91.8641 23.8716 91.1861 23.8716ZM102.369 20.0307V14.9739H104.426V23.7012H102.432V22.15H102.341C102.144 22.6387 101.82 23.0383 101.369 23.3489C100.922 23.6595 100.371 23.8148 99.7159 23.8148C99.1439 23.8148 98.6383 23.6879 98.1989 23.4341C97.7633 23.1766 97.4223 22.8034 97.1761 22.3148C96.9299 21.8224 96.8068 21.2277 96.8068 20.5307V14.9739H98.8636V20.2125C98.8636 20.7656 99.0152 21.205 99.3182 21.5307C99.6212 21.8565 100.019 22.0194 100.511 22.0194C100.814 22.0194 101.108 21.9455 101.392 21.7978C101.676 21.65 101.909 21.4303 102.091 21.1387C102.277 20.8432 102.369 20.4739 102.369 20.0307ZM106.541 23.7012V14.9739H108.507V16.4569H108.609C108.791 15.9569 109.092 15.5667 109.513 15.2864C109.933 15.0023 110.435 14.8603 111.018 14.8603C111.609 14.8603 112.107 15.0042 112.513 15.2921C112.922 15.5762 113.21 15.9644 113.376 16.4569H113.467C113.661 15.972 113.986 15.5856 114.445 15.2978C114.907 15.0061 115.454 14.8603 116.087 14.8603C116.89 14.8603 117.545 15.1141 118.053 15.6216C118.56 16.1292 118.814 16.8697 118.814 17.8432V23.7012H116.751V18.1614C116.751 17.6197 116.607 17.2239 116.32 16.9739C116.032 16.7201 115.679 16.5932 115.263 16.5932C114.767 16.5932 114.378 16.7485 114.098 17.0591C113.821 17.3659 113.683 17.7656 113.683 18.258V23.7012H111.666V18.0762C111.666 17.6254 111.53 17.2656 111.257 16.9966C110.988 16.7277 110.636 16.5932 110.2 16.5932C109.905 16.5932 109.636 16.669 109.393 16.8205C109.151 16.9682 108.958 17.1784 108.814 17.4512C108.67 17.7201 108.598 18.0345 108.598 18.3944V23.7012H106.541Z" fill="white"/>
<defs>
<linearGradient id="paint0_linear_104_530" x1="5.02273" y1="0.727539" x2="30.5227" y2="36.6594" gradientUnits="userSpaceOnUse">
<stop stop-color="white"/>
<stop offset="1" stop-color="#D9D9D9" stop-opacity="0.71"/>
</linearGradient>
<clipPath id="clip0_104_530">
<rect width="24" height="24" fill="white" transform="translate(5 5.72754)"/>
</clipPath>
</defs>
</svg>
