<svg width="24" height="24" viewBox="0 0 24 24" fill="none" xmlns="http://www.w3.org/2000/svg">
<path d="M12.0004 22.7599C10.9104 22.7599 9.83039 22.4399 8.98039 21.8099L4.68039 18.5999C3.54039 17.7499 2.65039 15.9799 2.65039 14.5599V7.11994C2.65039 5.57994 3.78039 3.93994 5.23039 3.39994L10.2204 1.52994C11.2104 1.15994 12.7704 1.15994 13.7604 1.52994L18.7604 3.39994C20.2104 3.93994 21.3404 5.57994 21.3404 7.11994V14.5499C21.3404 15.9699 20.4504 17.7399 19.3104 18.5899L15.0104 21.7999C14.1704 22.4399 13.0904 22.7599 12.0004 22.7599ZM10.7504 2.93994L5.76039 4.80994C4.90039 5.12994 4.15039 6.20994 4.15039 7.12994V14.5599C4.15039 15.5099 4.82039 16.8399 5.57039 17.3999L9.87039 20.6099C11.0204 21.4699 12.9704 21.4699 14.1204 20.6099L18.4204 17.3999C19.1804 16.8299 19.8404 15.4999 19.8404 14.5599V7.11994C19.8404 6.20994 19.0904 5.12994 18.2304 4.79994L13.2404 2.92994C12.5804 2.68994 11.4204 2.68994 10.7504 2.93994Z" fill="white"/>
<path d="M10.0056 10C10.1285 10 10.2272 10.041 10.3017 10.1229C10.3799 10.2011 10.419 10.3035 10.419 10.4302V13.5642C10.419 13.6946 10.3799 13.8007 10.3017 13.8827C10.2272 13.9609 10.1285 14 10.0056 14C9.87151 14 9.7635 13.9516 9.68156 13.8547L7.81006 11.4581V13.5642C7.81006 13.6946 7.77281 13.8007 7.69832 13.8827C7.62756 13.9609 7.53073 14 7.40782 14C7.28492 14 7.18622 13.9609 7.11173 13.8827C7.03724 13.8007 7 13.6946 7 13.5642V10.4302C7 10.3035 7.03724 10.2011 7.11173 10.1229C7.18994 10.041 7.2905 10 7.41341 10C7.55121 10 7.65736 10.0484 7.73184 10.1453L9.60335 12.5251V10.4302C9.60335 10.3035 9.6406 10.2011 9.71508 10.1229C9.78957 10.041 9.88641 10 10.0056 10Z" fill="white"/>
<path d="M11.6366 14C11.5063 14 11.4001 13.9609 11.3182 13.8827C11.24 13.8007 11.2009 13.6946 11.2009 13.5642V10.4358C11.2009 10.3054 11.2362 10.2048 11.307 10.1341C11.3778 10.0633 11.4783 10.0279 11.6087 10.0279H13.5305C13.672 10.0279 13.7763 10.0559 13.8433 10.1117C13.9104 10.1676 13.9439 10.2551 13.9439 10.3743C13.9439 10.4898 13.9104 10.5754 13.8433 10.6313C13.7763 10.6872 13.672 10.7151 13.5305 10.7151H12.0612V11.6201H13.4187C13.5603 11.6201 13.6645 11.648 13.7316 11.7039C13.7986 11.7598 13.8321 11.8473 13.8321 11.9665C13.8321 12.0819 13.7986 12.1676 13.7316 12.2235C13.6645 12.2793 13.5603 12.3073 13.4187 12.3073H12.0612V13.5642C12.0612 13.6983 12.0221 13.8045 11.9439 13.8827C11.8694 13.9609 11.767 14 11.6366 14Z" fill="white"/>
<path d="M15.8479 13.9944C15.7175 13.9944 15.6114 13.9553 15.5295 13.8771C15.4512 13.7989 15.4121 13.6946 15.4121 13.5642V10.7374H14.5071C14.2315 10.7374 14.0937 10.6182 14.0937 10.3799C14.0937 10.1453 14.2315 10.0279 14.5071 10.0279H17.1887C17.4643 10.0279 17.6021 10.1453 17.6021 10.3799C17.6021 10.6182 17.4643 10.7374 17.1887 10.7374H16.2837V13.5642C16.2837 13.6946 16.2445 13.7989 16.1663 13.8771C16.0881 13.9553 15.982 13.9944 15.8479 13.9944Z" fill="white"/>
</svg>
