<svg width="26" height="27" viewBox="0 0 26 27" fill="none" xmlns="http://www.w3.org/2000/svg">
<path d="M12.0199 23.5299C9.68987 23.5299 7.35987 23.1599 5.14987 22.4199C4.30987 22.1299 3.66987 21.5399 3.38987 20.7699C3.09987 19.9999 3.19987 19.1499 3.65987 18.3899L4.80987 16.4799C5.04987 16.0799 5.26987 15.2799 5.26987 14.8099V11.9199C5.26987 8.19992 8.29987 5.16992 12.0199 5.16992C15.7399 5.16992 18.7699 8.19992 18.7699 11.9199V14.8099C18.7699 15.2699 18.9899 16.0799 19.2299 16.4899L20.3699 18.3899C20.7999 19.1099 20.8799 19.9799 20.5899 20.7699C20.2999 21.5599 19.6699 22.1599 18.8799 22.4199C16.6799 23.1599 14.3499 23.5299 12.0199 23.5299ZM12.0199 6.66992C9.12987 6.66992 6.76987 9.01992 6.76987 11.9199V14.8099C6.76987 15.5399 6.46987 16.6199 6.09987 17.2499L4.94987 19.1599C4.72987 19.5299 4.66987 19.9199 4.79987 20.2499C4.91987 20.5899 5.21987 20.8499 5.62987 20.9899C9.80987 22.3899 14.2399 22.3899 18.4199 20.9899C18.7799 20.8699 19.0599 20.5999 19.1899 20.2399C19.3199 19.8799 19.2899 19.4899 19.0899 19.1599L17.9399 17.2499C17.5599 16.5999 17.2699 15.5299 17.2699 14.7999V11.9199C17.2699 9.01992 14.9199 6.66992 12.0199 6.66992Z" fill="white"/>
<path d="M13.8796 6.93969C13.8096 6.93969 13.7396 6.92969 13.6696 6.90969C13.3796 6.82969 13.0996 6.76969 12.8296 6.72969C11.9796 6.61969 11.1596 6.67969 10.3896 6.90969C10.1096 6.99969 9.80962 6.90969 9.61962 6.69969C9.42962 6.48969 9.36963 6.18969 9.47963 5.91969C9.88963 4.86969 10.8896 4.17969 12.0296 4.17969C13.1696 4.17969 14.1696 4.85969 14.5796 5.91969C14.6796 6.18969 14.6296 6.48969 14.4396 6.69969C14.2896 6.85969 14.0796 6.93969 13.8796 6.93969Z" fill="white"/>
<path d="M12.0195 25.8096C11.0295 25.8096 10.0695 25.4096 9.36953 24.7096C8.66953 24.0096 8.26953 23.0496 8.26953 22.0596H9.76953C9.76953 22.6496 10.0095 23.2296 10.4295 23.6496C10.8495 24.0696 11.4295 24.3096 12.0195 24.3096C13.2595 24.3096 14.2695 23.2996 14.2695 22.0596H15.7695C15.7695 24.1296 14.0895 25.8096 12.0195 25.8096Z" fill="white"/>
<rect x="12" width="14" height="14" rx="7" fill="#FC0A0A"/>
<path d="M18.7045 10.0795C18.4053 10.0777 18.1165 10.0275 17.8381 9.92898C17.5616 9.83049 17.3134 9.67045 17.0938 9.44886C16.8741 9.22727 16.6998 8.93371 16.571 8.56818C16.4441 8.20265 16.3807 7.75379 16.3807 7.22159C16.3826 6.73295 16.4384 6.2964 16.5483 5.91193C16.66 5.52557 16.8191 5.19792 17.0256 4.92898C17.2339 4.66004 17.483 4.45549 17.7727 4.31534C18.0625 4.1733 18.3873 4.10227 18.7472 4.10227C19.1354 4.10227 19.4782 4.17803 19.7756 4.32955C20.0729 4.47917 20.3116 4.68277 20.4915 4.94034C20.6733 5.19792 20.7831 5.48674 20.821 5.80682H19.608C19.5606 5.60417 19.4612 5.44508 19.3097 5.32955C19.1581 5.21402 18.9706 5.15625 18.7472 5.15625C18.3684 5.15625 18.0805 5.32102 17.8835 5.65057C17.6884 5.98011 17.589 6.42803 17.5852 6.99432H17.625C17.7121 6.82197 17.8295 6.67519 17.9773 6.55398C18.1269 6.43087 18.2964 6.33712 18.4858 6.27273C18.6771 6.20644 18.8788 6.1733 19.0909 6.1733C19.4356 6.1733 19.7424 6.25473 20.0114 6.41761C20.2803 6.5786 20.4924 6.80019 20.6477 7.08239C20.803 7.36458 20.8807 7.6875 20.8807 8.05114C20.8807 8.44508 20.7888 8.79545 20.6051 9.10227C20.4233 9.40909 20.1686 9.64962 19.8409 9.82386C19.5152 9.99621 19.1364 10.0814 18.7045 10.0795ZM18.6989 9.11364C18.8883 9.11364 19.0578 9.06818 19.2074 8.97727C19.357 8.88636 19.4744 8.76326 19.5597 8.60795C19.6449 8.45265 19.6875 8.27841 19.6875 8.08523C19.6875 7.89205 19.6449 7.71875 19.5597 7.56534C19.4763 7.41193 19.3608 7.28977 19.2131 7.19886C19.0653 7.10795 18.8968 7.0625 18.7074 7.0625C18.5653 7.0625 18.4337 7.08902 18.3125 7.14205C18.1932 7.19508 18.0881 7.26894 17.9972 7.36364C17.9081 7.45833 17.8381 7.56818 17.7869 7.69318C17.7358 7.81629 17.7102 7.94792 17.7102 8.08807C17.7102 8.27557 17.7528 8.44697 17.8381 8.60227C17.9252 8.75758 18.0426 8.88163 18.1903 8.97443C18.34 9.06723 18.5095 9.11364 18.6989 9.11364Z" fill="white"/>
</svg>
